<svg id="visual" viewBox="0 0 900 900" width="900" height="900" xmlns="http://www.w3.org/2000/svg" xmlns:xlink="http://www.w3.org/1999/xlink" version="1.1"><g stroke-width="1" stroke-linejoin="bevel"><path d="M506 479L594 411L580 292Z" fill="#180019" stroke="#C026D3"></path><path d="M580 292L414 240L506 479Z" fill="#1b001c" stroke="#C026D3"></path><path d="M414 240L224 374L506 479Z" fill="#251027" stroke="#C026D3"></path><path d="M414 240L221 247L224 374Z" fill="#251027" stroke="#C026D3"></path><path d="M224 374L437 673L506 479Z" fill="#000000" stroke="#C026D3"></path><path d="M506 479L607 656L594 411Z" fill="#271229" stroke="#C026D3"></path><path d="M437 673L607 656L506 479Z" fill="#1f0922" stroke="#C026D3"></path><path d="M580 292L526 0L414 240Z" fill="#1a001b" stroke="#C026D3"></path><path d="M414 240L143 0L221 247Z" fill="#1f0922" stroke="#C026D3"></path><path d="M900 508L900 310L594 411Z" fill="#1b001c" stroke="#C026D3"></path><path d="M594 411L900 310L580 292Z" fill="#251027" stroke="#C026D3"></path><path d="M580 292L767 0L526 0Z" fill="#251027" stroke="#C026D3"></path><path d="M607 656L900 508L594 411Z" fill="#1e0620" stroke="#C026D3"></path><path d="M900 310L767 0L580 292Z" fill="#1f0922" stroke="#C026D3"></path><path d="M221 247L0 464L224 374Z" fill="#1e0620" stroke="#C026D3"></path><path d="M224 374L187 764L437 673Z" fill="#1b001c" stroke="#C026D3"></path><path d="M526 0L143 0L414 240Z" fill="#1e0620" stroke="#C026D3"></path><path d="M221 247L0 143L0 464Z" fill="#000000" stroke="#C026D3"></path><path d="M0 658L187 764L224 374Z" fill="#1a001b" stroke="#C026D3"></path><path d="M437 673L467 900L607 656Z" fill="#180019" stroke="#C026D3"></path><path d="M143 0L0 143L221 247Z" fill="#1d031e" stroke="#C026D3"></path><path d="M187 764L467 900L437 673Z" fill="#251027" stroke="#C026D3"></path><path d="M607 656L900 756L900 508Z" fill="#180019" stroke="#C026D3"></path><path d="M900 310L900 0L767 0Z" fill="#1d031e" stroke="#C026D3"></path><path d="M467 900L614 900L607 656Z" fill="#230e25" stroke="#C026D3"></path><path d="M0 464L0 658L224 374Z" fill="#210c24" stroke="#C026D3"></path><path d="M614 900L900 756L607 656Z" fill="#180019" stroke="#C026D3"></path><path d="M143 0L0 0L0 143Z" fill="#1f0922" stroke="#C026D3"></path><path d="M0 900L179 900L187 764Z" fill="#210c24" stroke="#C026D3"></path><path d="M187 764L179 900L467 900Z" fill="#1e0620" stroke="#C026D3"></path><path d="M614 900L900 900L900 756Z" fill="#1a001b" stroke="#C026D3"></path><path d="M0 658L0 900L187 764Z" fill="#1f0922" stroke="#C026D3"></path></g></svg>