<svg id="visual" viewBox="0 0 900 450" width="900" height="450" xmlns="http://www.w3.org/2000/svg" xmlns:xlink="http://www.w3.org/1999/xlink" version="1.1"><g stroke-width="1" stroke-linejoin="bevel"><path d="M402 190L665 171L504 0Z" fill="#130014" stroke="#C026D3"></path><path d="M665 171L663 0L504 0Z" fill="#180019" stroke="#C026D3"></path><path d="M402 190L436 450L665 171Z" fill="#000000" stroke="#C026D3"></path><path d="M436 450L678 450L665 171Z" fill="#140015" stroke="#C026D3"></path><path d="M665 171L900 0L663 0Z" fill="#180019" stroke="#C026D3"></path><path d="M402 190L307 450L436 450Z" fill="#160017" stroke="#C026D3"></path><path d="M183 0L197 269L402 190Z" fill="#130014" stroke="#C026D3"></path><path d="M504 0L183 0L402 190Z" fill="#150016" stroke="#C026D3"></path><path d="M197 269L307 450L402 190Z" fill="#160017" stroke="#C026D3"></path><path d="M678 450L900 256L665 171Z" fill="#170018" stroke="#C026D3"></path><path d="M900 256L900 0L665 171Z" fill="#160017" stroke="#C026D3"></path><path d="M678 450L900 450L900 256Z" fill="#160017" stroke="#C026D3"></path><path d="M183 0L0 274L197 269Z" fill="#150016" stroke="#C026D3"></path><path d="M197 269L0 450L307 450Z" fill="#170018" stroke="#C026D3"></path><path d="M0 0L0 274L183 0Z" fill="#180019" stroke="#C026D3"></path><path d="M0 274L0 450L197 269Z" fill="#170018" stroke="#C026D3"></path></g></svg>