<svg id="visual" viewBox="0 0 600 900" width="600" height="900" xmlns="http://www.w3.org/2000/svg" xmlns:xlink="http://www.w3.org/1999/xlink" version="1.1"><g stroke-width="1" stroke-linejoin="bevel"><path d="M320.3 440.5L344.8 471.5L365.8 435.5Z" fill="#1d031e" stroke="#C026D3"></path><path d="M365.8 435.5L343.8 377.6L320.3 440.5Z" fill="#180019" stroke="#C026D3"></path><path d="M344.8 471.5L404.8 485.4L365.8 435.5Z" fill="#1d031e" stroke="#C026D3"></path><path d="M365.8 435.5L427.8 360.6L343.8 377.6Z" fill="#180019" stroke="#C026D3"></path><path d="M343.8 377.6L317.3 379.5L320.3 440.5Z" fill="#251027" stroke="#C026D3"></path><path d="M317.3 379.5L274.3 414.6L320.3 440.5Z" fill="#251027" stroke="#C026D3"></path><path d="M320.3 440.5L328.3 523.4L344.8 471.5Z" fill="#251027" stroke="#C026D3"></path><path d="M243.2 518.4L328.3 523.4L320.3 440.5Z" fill="#1f0922" stroke="#C026D3"></path><path d="M344.8 471.5L407.4 505.5L404.8 485.4Z" fill="#1e0620" stroke="#C026D3"></path><path d="M320.3 343.6L306.7 377.5L317.3 379.5Z" fill="#180019" stroke="#C026D3"></path><path d="M317.3 379.5L306.7 377.5L274.3 414.6Z" fill="#271229" stroke="#C026D3"></path><path d="M328.3 523.4L407.4 505.5L344.8 471.5Z" fill="#000000" stroke="#C026D3"></path><path d="M236.2 366.5L247.7 420.5L274.3 414.6Z" fill="#180019" stroke="#C026D3"></path><path d="M274.3 414.6L243.7 429.6L320.3 440.5Z" fill="#1b001c" stroke="#C026D3"></path><path d="M247.7 420.5L243.7 429.6L274.3 414.6Z" fill="#210c24" stroke="#C026D3"></path><path d="M343.8 377.6L320.3 343.6L317.3 379.5Z" fill="#1e0620" stroke="#C026D3"></path><path d="M306.7 377.5L251.2 358.6L274.3 414.6Z" fill="#1f0922" stroke="#C026D3"></path><path d="M462.9 416.5L365.8 435.5L404.8 485.4Z" fill="#1b001c" stroke="#C026D3"></path><path d="M462.9 416.5L427.8 360.6L365.8 435.5Z" fill="#1d031e" stroke="#C026D3"></path><path d="M343.8 377.6L401.8 275.7L320.3 343.6Z" fill="#251027" stroke="#C026D3"></path><path d="M477.4 501.4L462.9 416.5L404.8 485.4Z" fill="#000000" stroke="#C026D3"></path><path d="M243.7 429.6L243.2 518.4L320.3 440.5Z" fill="#1d031e" stroke="#C026D3"></path><path d="M320.3 343.6L251.2 358.6L306.7 377.5Z" fill="#251027" stroke="#C026D3"></path><path d="M247.7 420.5L181.6 375.5L243.7 429.6Z" fill="#210c24" stroke="#C026D3"></path><path d="M302.7 580.3L329.8 574.4L328.3 523.4Z" fill="#271229" stroke="#C026D3"></path><path d="M328.3 523.4L329.8 574.4L407.4 505.5Z" fill="#1d031e" stroke="#C026D3"></path><path d="M243.2 518.4L244.7 534.4L328.3 523.4Z" fill="#230e25" stroke="#C026D3"></path><path d="M462.9 416.5L449.4 364.5L427.8 360.6Z" fill="#1f0922" stroke="#C026D3"></path><path d="M251.2 358.6L236.2 366.5L274.3 414.6Z" fill="#230e25" stroke="#C026D3"></path><path d="M243.7 429.6L199.6 513.5L243.2 518.4Z" fill="#210c24" stroke="#C026D3"></path><path d="M244.7 534.4L302.7 580.3L328.3 523.4Z" fill="#180019" stroke="#C026D3"></path><path d="M432.4 588.4L477.4 501.4L407.4 505.5Z" fill="#000000" stroke="#C026D3"></path><path d="M407.4 505.5L477.4 501.4L404.8 485.4Z" fill="#1a001b" stroke="#C026D3"></path><path d="M244.7 534.4L277.2 590.4L302.7 580.3Z" fill="#251027" stroke="#C026D3"></path><path d="M320.3 630.3L385.3 611.4L329.8 574.4Z" fill="#251027" stroke="#C026D3"></path><path d="M243.2 518.4L199.6 513.5L244.7 534.4Z" fill="#1d031e" stroke="#C026D3"></path><path d="M244.7 534.4L161.6 558.4L277.2 590.4Z" fill="#271229" stroke="#C026D3"></path><path d="M185.2 505.5L199.6 513.5L243.7 429.6Z" fill="#1a001b" stroke="#C026D3"></path><path d="M385.3 611.4L407.4 505.5L329.8 574.4Z" fill="#230e25" stroke="#C026D3"></path><path d="M385.3 611.4L432.4 588.4L407.4 505.5Z" fill="#1e0620" stroke="#C026D3"></path><path d="M129.1 424.5L185.2 505.5L243.7 429.6Z" fill="#210c24" stroke="#C026D3"></path><path d="M150.6 634.2L278.7 614.4L277.2 590.4Z" fill="#230e25" stroke="#C026D3"></path><path d="M320.3 630.3L329.8 574.4L302.7 580.3Z" fill="#230e25" stroke="#C026D3"></path><path d="M401.8 275.7L300.7 281.7L320.3 343.6Z" fill="#1b001c" stroke="#C026D3"></path><path d="M320.3 343.6L300.7 281.7L251.2 358.6Z" fill="#1e0620" stroke="#C026D3"></path><path d="M251.2 358.6L218.6 322.7L236.2 366.5Z" fill="#210c24" stroke="#C026D3"></path><path d="M401.8 275.7L343.8 377.6L427.8 360.6Z" fill="#271229" stroke="#C026D3"></path><path d="M225.2 291.7L218.6 322.7L251.2 358.6Z" fill="#1d031e" stroke="#C026D3"></path><path d="M236.2 366.5L181.6 375.5L247.7 420.5Z" fill="#1a001b" stroke="#C026D3"></path><path d="M218.6 322.7L181.6 375.5L236.2 366.5Z" fill="#210c24" stroke="#C026D3"></path><path d="M184.6 533.4L244.7 534.4L199.6 513.5Z" fill="#1f0922" stroke="#C026D3"></path><path d="M277.2 590.4L278.7 614.4L302.7 580.3Z" fill="#1f0922" stroke="#C026D3"></path><path d="M488.5 321.7L401.8 275.7L427.8 360.6Z" fill="#230e25" stroke="#C026D3"></path><path d="M161.6 558.4L184.6 533.4L128.1 518.4Z" fill="#230e25" stroke="#C026D3"></path><path d="M185.2 505.5L184.6 533.4L199.6 513.5Z" fill="#180019" stroke="#C026D3"></path><path d="M552.5 473.5L524.9 475.5L583.5 532.4Z" fill="#230e25" stroke="#C026D3"></path><path d="M477.4 501.4L524.9 475.5L462.9 416.5Z" fill="#180019" stroke="#C026D3"></path><path d="M462.9 416.5L504.9 358.6L449.4 364.5Z" fill="#251027" stroke="#C026D3"></path><path d="M449.4 364.5L488.5 321.7L427.8 360.6Z" fill="#1d031e" stroke="#C026D3"></path><path d="M533.5 428.5L504.9 358.6L462.9 416.5Z" fill="#271229" stroke="#C026D3"></path><path d="M278.7 614.4L320.3 630.3L302.7 580.3Z" fill="#1f0922" stroke="#C026D3"></path><path d="M434.4 626.3L421.8 618.3L339.3 656.2Z" fill="#1e0620" stroke="#C026D3"></path><path d="M385.3 611.4L421.8 618.3L432.4 588.4Z" fill="#1e0620" stroke="#C026D3"></path><path d="M536.9 587.4L524.9 475.5L477.4 501.4Z" fill="#251027" stroke="#C026D3"></path><path d="M524.9 475.5L533.5 428.5L462.9 416.5Z" fill="#1e0620" stroke="#C026D3"></path><path d="M495.4 328.6L488.5 321.7L449.4 364.5Z" fill="#210c24" stroke="#C026D3"></path><path d="M504.9 358.6L495.4 328.6L449.4 364.5Z" fill="#000000" stroke="#C026D3"></path><path d="M485.4 288.6L495.4 328.6L535.5 335.6Z" fill="#1d031e" stroke="#C026D3"></path><path d="M225.2 291.7L215.7 299.6L218.6 322.7Z" fill="#1d031e" stroke="#C026D3"></path><path d="M218.6 322.7L109.6 349.6L181.6 375.5Z" fill="#1a001b" stroke="#C026D3"></path><path d="M300.7 281.7L225.2 291.7L251.2 358.6Z" fill="#230e25" stroke="#C026D3"></path><path d="M339.3 656.2L421.8 618.3L385.3 611.4Z" fill="#1a001b" stroke="#C026D3"></path><path d="M421.8 618.3L434.4 626.3L432.4 588.4Z" fill="#210c24" stroke="#C026D3"></path><path d="M409.4 242.8L360.3 241.7L401.8 275.7Z" fill="#1a001b" stroke="#C026D3"></path><path d="M401.8 275.7L360.3 241.7L300.7 281.7Z" fill="#1a001b" stroke="#C026D3"></path><path d="M216.6 197.8L196.2 262.6L225.2 291.7Z" fill="#251027" stroke="#C026D3"></path><path d="M273.2 688.2L339.3 656.2L320.3 630.3Z" fill="#1a001b" stroke="#C026D3"></path><path d="M320.3 630.3L339.3 656.2L385.3 611.4Z" fill="#1d031e" stroke="#C026D3"></path><path d="M524.9 475.5L552.5 473.5L533.5 428.5Z" fill="#230e25" stroke="#C026D3"></path><path d="M535.5 335.6L495.4 328.6L504.9 358.6Z" fill="#1b001c" stroke="#C026D3"></path><path d="M536.9 587.4L477.4 501.4L432.4 588.4Z" fill="#251027" stroke="#C026D3"></path><path d="M495.4 328.6L485.4 288.6L488.5 321.7Z" fill="#271229" stroke="#C026D3"></path><path d="M488.5 321.7L485.4 288.6L401.8 275.7Z" fill="#1e0620" stroke="#C026D3"></path><path d="M535.5 335.6L504.9 358.6L540.5 339.6Z" fill="#1e0620" stroke="#C026D3"></path><path d="M128.1 518.4L184.6 533.4L185.2 505.5Z" fill="#000000" stroke="#C026D3"></path><path d="M184.6 533.4L161.6 558.4L244.7 534.4Z" fill="#230e25" stroke="#C026D3"></path><path d="M278.7 614.4L257.7 676.2L320.3 630.3Z" fill="#1b001c" stroke="#C026D3"></path><path d="M413.4 240.7L409.4 242.8L401.8 275.7Z" fill="#1b001c" stroke="#C026D3"></path><path d="M109.6 349.6L129.1 424.5L181.6 375.5Z" fill="#230e25" stroke="#C026D3"></path><path d="M181.6 375.5L129.1 424.5L243.7 429.6Z" fill="#251027" stroke="#C026D3"></path><path d="M485.4 288.6L413.4 240.7L401.8 275.7Z" fill="#1e0620" stroke="#C026D3"></path><path d="M409.4 242.8L350.3 194.8L360.3 241.7Z" fill="#1a001b" stroke="#C026D3"></path><path d="M540.5 339.6L504.9 358.6L533.5 428.5Z" fill="#1a001b" stroke="#C026D3"></path><path d="M600 418.5L540.5 339.6L533.5 428.5Z" fill="#230e25" stroke="#C026D3"></path><path d="M535.5 335.6L543.9 331.6L485.4 288.6Z" fill="#251027" stroke="#C026D3"></path><path d="M129.1 424.5L128.1 518.4L185.2 505.5Z" fill="#230e25" stroke="#C026D3"></path><path d="M600 343.6L543.9 331.6L540.5 339.6Z" fill="#230e25" stroke="#C026D3"></path><path d="M540.5 339.6L543.9 331.6L535.5 335.6Z" fill="#1d031e" stroke="#C026D3"></path><path d="M225.2 291.7L196.2 262.6L215.7 299.6Z" fill="#1f0922" stroke="#C026D3"></path><path d="M215.7 299.6L109.6 349.6L218.6 322.7Z" fill="#000000" stroke="#C026D3"></path><path d="M269.7 190.8L225.2 291.7L300.7 281.7Z" fill="#271229" stroke="#C026D3"></path><path d="M536.9 598.3L536.9 587.4L432.4 588.4Z" fill="#1a001b" stroke="#C026D3"></path><path d="M257.7 676.2L278.7 614.4L150.6 634.2Z" fill="#210c24" stroke="#C026D3"></path><path d="M240.2 687.3L257.7 676.2L150.6 634.2Z" fill="#1e0620" stroke="#C026D3"></path><path d="M507.9 670.2L536.9 598.3L434.4 626.3Z" fill="#1d031e" stroke="#C026D3"></path><path d="M434.4 626.3L536.9 598.3L432.4 588.4Z" fill="#1e0620" stroke="#C026D3"></path><path d="M536.9 587.4L583.5 532.4L524.9 475.5Z" fill="#000000" stroke="#C026D3"></path><path d="M536.9 598.3L547.9 590.4L536.9 587.4Z" fill="#230e25" stroke="#C026D3"></path><path d="M257.7 676.2L273.2 688.2L320.3 630.3Z" fill="#1f0922" stroke="#C026D3"></path><path d="M494.5 694.2L507.9 670.2L434.4 626.3Z" fill="#180019" stroke="#C026D3"></path><path d="M413.4 240.7L350.3 194.8L409.4 242.8Z" fill="#180019" stroke="#C026D3"></path><path d="M360.3 241.7L269.7 190.8L300.7 281.7Z" fill="#271229" stroke="#C026D3"></path><path d="M433.8 184.8L350.3 194.8L413.4 240.7Z" fill="#180019" stroke="#C026D3"></path><path d="M157.1 255.7L109.6 349.6L215.7 299.6Z" fill="#180019" stroke="#C026D3"></path><path d="M129.1 424.5L58.5 463.5L128.1 518.4Z" fill="#251027" stroke="#C026D3"></path><path d="M547.9 590.4L583.5 532.4L536.9 587.4Z" fill="#1b001c" stroke="#C026D3"></path><path d="M552.5 473.5L600 447.5L533.5 428.5Z" fill="#000000" stroke="#C026D3"></path><path d="M583.5 532.4L600 447.5L552.5 473.5Z" fill="#000000" stroke="#C026D3"></path><path d="M600 447.5L600 418.5L533.5 428.5Z" fill="#1d031e" stroke="#C026D3"></path><path d="M150.6 634.2L277.2 590.4L161.6 558.4Z" fill="#230e25" stroke="#C026D3"></path><path d="M257.7 676.2L240.2 687.3L273.2 688.2Z" fill="#1b001c" stroke="#C026D3"></path><path d="M113.6 596.3L161.6 558.4L128.1 518.4Z" fill="#251027" stroke="#C026D3"></path><path d="M113.6 596.3L138.1 612.4L161.6 558.4Z" fill="#210c24" stroke="#C026D3"></path><path d="M350.3 194.8L269.7 190.8L360.3 241.7Z" fill="#1f0922" stroke="#C026D3"></path><path d="M196.2 262.6L157.1 255.7L215.7 299.6Z" fill="#1e0620" stroke="#C026D3"></path><path d="M180.2 183.8L157.1 255.7L196.2 262.6Z" fill="#1b001c" stroke="#C026D3"></path><path d="M543.9 331.6L524.5 247.8L485.4 288.6Z" fill="#180019" stroke="#C026D3"></path><path d="M485.4 288.6L494.9 201.8L413.4 240.7Z" fill="#230e25" stroke="#C026D3"></path><path d="M600 278.6L524.5 247.8L543.9 331.6Z" fill="#1f0922" stroke="#C026D3"></path><path d="M138.1 612.4L150.6 634.2L161.6 558.4Z" fill="#1b001c" stroke="#C026D3"></path><path d="M22.5 533.4L113.6 596.3L128.1 518.4Z" fill="#230e25" stroke="#C026D3"></path><path d="M138.1 612.4L68.1 628.3L150.6 634.2Z" fill="#230e25" stroke="#C026D3"></path><path d="M597.5 577.3L600 549.4L583.5 532.4Z" fill="#1d031e" stroke="#C026D3"></path><path d="M583.5 532.4L600 549.4L600 447.5Z" fill="#1b001c" stroke="#C026D3"></path><path d="M600 418.5L600 343.6L540.5 339.6Z" fill="#251027" stroke="#C026D3"></path><path d="M600 584.3L598.5 582.4L600 595.4Z" fill="#1e0620" stroke="#C026D3"></path><path d="M547.9 590.4L597.5 577.3L583.5 532.4Z" fill="#251027" stroke="#C026D3"></path><path d="M410.4 736.1L434.4 626.3L339.3 656.2Z" fill="#210c24" stroke="#C026D3"></path><path d="M434.8 184.8L433.8 184.8L413.4 240.7Z" fill="#1b001c" stroke="#C026D3"></path><path d="M350.3 194.8L275.2 145.8L269.7 190.8Z" fill="#230e25" stroke="#C026D3"></path><path d="M459.9 182.8L434.8 184.8L413.4 240.7Z" fill="#251027" stroke="#C026D3"></path><path d="M270.7 115.8L275.2 145.8L298.3 103.9Z" fill="#1e0620" stroke="#C026D3"></path><path d="M327.8 751.2L358.8 724.2L273.2 688.2Z" fill="#271229" stroke="#C026D3"></path><path d="M273.2 688.2L358.8 724.2L339.3 656.2Z" fill="#1a001b" stroke="#C026D3"></path><path d="M269.7 190.8L216.6 197.8L225.2 291.7Z" fill="#1f0922" stroke="#C026D3"></path><path d="M114.6 258.6L78.1 351.6L109.6 349.6Z" fill="#271229" stroke="#C026D3"></path><path d="M109.6 349.6L57.1 389.6L129.1 424.5Z" fill="#1e0620" stroke="#C026D3"></path><path d="M598.5 582.4L597.5 577.3L547.9 590.4Z" fill="#1b001c" stroke="#C026D3"></path><path d="M410.4 736.1L462.4 707.2L434.4 626.3Z" fill="#271229" stroke="#C026D3"></path><path d="M57.1 389.6L58.1 449.5L129.1 424.5Z" fill="#210c24" stroke="#C026D3"></path><path d="M58.1 449.5L58.5 463.5L129.1 424.5Z" fill="#1f0922" stroke="#C026D3"></path><path d="M600 343.6L600 318.7L543.9 331.6Z" fill="#251027" stroke="#C026D3"></path><path d="M548.9 226.7L494.9 201.8L524.5 247.8Z" fill="#1a001b" stroke="#C026D3"></path><path d="M524.5 247.8L494.9 201.8L485.4 288.6Z" fill="#1a001b" stroke="#C026D3"></path><path d="M598.5 582.4L547.9 590.4L600 595.4Z" fill="#1d031e" stroke="#C026D3"></path><path d="M597.5 577.3L600 584.3L600 549.4Z" fill="#230e25" stroke="#C026D3"></path><path d="M494.9 201.8L459.9 182.8L413.4 240.7Z" fill="#210c24" stroke="#C026D3"></path><path d="M368.3 105.9L350.3 194.8L433.8 184.8Z" fill="#1d031e" stroke="#C026D3"></path><path d="M462.4 707.2L494.5 694.2L434.4 626.3Z" fill="#230e25" stroke="#C026D3"></path><path d="M600 595.4L547.9 590.4L600 636.2Z" fill="#210c24" stroke="#C026D3"></path><path d="M547.9 590.4L536.9 598.3L600 636.2Z" fill="#000000" stroke="#C026D3"></path><path d="M598.5 582.4L600 584.3L597.5 577.3Z" fill="#271229" stroke="#C026D3"></path><path d="M78.1 351.6L57.1 389.6L109.6 349.6Z" fill="#180019" stroke="#C026D3"></path><path d="M600 636.2L536.9 598.3L507.9 670.2Z" fill="#1d031e" stroke="#C026D3"></path><path d="M358.8 724.2L410.4 736.1L339.3 656.2Z" fill="#1f0922" stroke="#C026D3"></path><path d="M462.4 707.2L491.5 740.1L494.5 694.2Z" fill="#1b001c" stroke="#C026D3"></path><path d="M102.1 185.8L114.6 258.6L157.1 255.7Z" fill="#000000" stroke="#C026D3"></path><path d="M157.1 255.7L114.6 258.6L109.6 349.6Z" fill="#1a001b" stroke="#C026D3"></path><path d="M78.1 351.6L33.5 350.6L57.1 389.6Z" fill="#251027" stroke="#C026D3"></path><path d="M600 278.6L548.9 226.7L524.5 247.8Z" fill="#000000" stroke="#C026D3"></path><path d="M494.9 201.8L449.4 133.8L459.9 182.8Z" fill="#1a001b" stroke="#C026D3"></path><path d="M302.3 760.2L327.8 751.2L273.2 688.2Z" fill="#1d031e" stroke="#C026D3"></path><path d="M358.8 724.2L404.4 759.2L410.4 736.1Z" fill="#1e0620" stroke="#C026D3"></path><path d="M302.3 760.2L273.2 688.2L236.2 758.1Z" fill="#230e25" stroke="#C026D3"></path><path d="M600 318.7L600 278.6L543.9 331.6Z" fill="#251027" stroke="#C026D3"></path><path d="M449.4 133.8L433.8 184.8L434.8 184.8Z" fill="#230e25" stroke="#C026D3"></path><path d="M269.7 190.8L275.2 145.8L216.6 197.8Z" fill="#1e0620" stroke="#C026D3"></path><path d="M216.6 197.8L180.2 183.8L196.2 262.6Z" fill="#210c24" stroke="#C026D3"></path><path d="M275.2 145.8L180.2 183.8L216.6 197.8Z" fill="#180019" stroke="#C026D3"></path><path d="M236.2 758.1L273.2 688.2L240.2 687.3Z" fill="#1e0620" stroke="#C026D3"></path><path d="M327.8 751.2L404.4 759.2L358.8 724.2Z" fill="#180019" stroke="#C026D3"></path><path d="M430.4 806.1L404.4 759.2L368.8 820.1Z" fill="#180019" stroke="#C026D3"></path><path d="M410.4 736.1L424.8 755.1L462.4 707.2Z" fill="#1d031e" stroke="#C026D3"></path><path d="M600 765.2L507.9 670.2L494.5 694.2Z" fill="#000000" stroke="#C026D3"></path><path d="M600 765.2L600 636.2L507.9 670.2Z" fill="#1f0922" stroke="#C026D3"></path><path d="M404.4 759.2L424.8 755.1L410.4 736.1Z" fill="#271229" stroke="#C026D3"></path><path d="M0 435.5L23.5 441.5L0 415.5Z" fill="#1f0922" stroke="#C026D3"></path><path d="M57.1 389.6L23.5 441.5L58.1 449.5Z" fill="#230e25" stroke="#C026D3"></path><path d="M58.1 449.5L23.5 441.5L58.5 463.5Z" fill="#1f0922" stroke="#C026D3"></path><path d="M66.1 628.2L68.1 628.3L113.6 596.3Z" fill="#1b001c" stroke="#C026D3"></path><path d="M36.5 302.6L33.5 350.6L78.1 351.6Z" fill="#1f0922" stroke="#C026D3"></path><path d="M36.5 302.6L78.1 351.6L114.6 258.6Z" fill="#1d031e" stroke="#C026D3"></path><path d="M424.8 755.1L491.5 740.1L462.4 707.2Z" fill="#000000" stroke="#C026D3"></path><path d="M206.6 758.2L240.2 687.3L106.5 712.2Z" fill="#1e0620" stroke="#C026D3"></path><path d="M206.6 758.2L236.2 758.1L240.2 687.3Z" fill="#1d031e" stroke="#C026D3"></path><path d="M66.1 628.2L113.6 596.3L22.5 533.4Z" fill="#210c24" stroke="#C026D3"></path><path d="M113.6 596.3L68.1 628.3L138.1 612.4Z" fill="#251027" stroke="#C026D3"></path><path d="M449.9 105.9L449.4 133.8L567.5 146.9Z" fill="#1f0922" stroke="#C026D3"></path><path d="M459.9 182.8L449.4 133.8L434.8 184.8Z" fill="#180019" stroke="#C026D3"></path><path d="M22.5 533.4L128.1 518.4L58.5 463.5Z" fill="#271229" stroke="#C026D3"></path><path d="M106.5 712.2L240.2 687.3L150.6 634.2Z" fill="#1f0922" stroke="#C026D3"></path><path d="M23.5 441.5L22.5 533.4L58.5 463.5Z" fill="#251027" stroke="#C026D3"></path><path d="M102.1 185.8L85.5 235.7L114.6 258.6Z" fill="#251027" stroke="#C026D3"></path><path d="M206.6 758.2L241.7 768.2L236.2 758.1Z" fill="#1d031e" stroke="#C026D3"></path><path d="M236.2 758.1L241.7 768.2L302.3 760.2Z" fill="#1f0922" stroke="#C026D3"></path><path d="M430.4 806.1L441.9 784.2L404.4 759.2Z" fill="#230e25" stroke="#C026D3"></path><path d="M310.3 105.8L275.2 145.8L350.3 194.8Z" fill="#1b001c" stroke="#C026D3"></path><path d="M275.2 145.8L270.7 115.8L180.2 183.8Z" fill="#230e25" stroke="#C026D3"></path><path d="M180.2 183.8L102.1 185.8L157.1 255.7Z" fill="#1b001c" stroke="#C026D3"></path><path d="M449.4 133.8L430.4 118.9L433.8 184.8Z" fill="#1a001b" stroke="#C026D3"></path><path d="M85.5 235.7L36.5 302.6L114.6 258.6Z" fill="#1a001b" stroke="#C026D3"></path><path d="M0 415.5L23.5 441.5L57.1 389.6Z" fill="#000000" stroke="#C026D3"></path><path d="M106.5 712.2L150.6 634.2L68.1 628.3Z" fill="#251027" stroke="#C026D3"></path><path d="M430.4 118.9L368.3 105.9L433.8 184.8Z" fill="#1b001c" stroke="#C026D3"></path><path d="M356.8 102.9L310.3 105.8L350.3 194.8Z" fill="#180019" stroke="#C026D3"></path><path d="M0 415.5L57.1 389.6L0 365.6Z" fill="#1f0922" stroke="#C026D3"></path><path d="M23.5 441.5L0 435.5L22.5 533.4Z" fill="#251027" stroke="#C026D3"></path><path d="M335.8 0L356.8 102.9L368.3 105.9Z" fill="#1f0922" stroke="#C026D3"></path><path d="M368.3 105.9L356.8 102.9L350.3 194.8Z" fill="#1f0922" stroke="#C026D3"></path><path d="M0 365.6L57.1 389.6L33.5 350.6Z" fill="#1a001b" stroke="#C026D3"></path><path d="M308.7 83.9L298.3 103.9L310.3 105.8Z" fill="#180019" stroke="#C026D3"></path><path d="M310.3 105.8L298.3 103.9L275.2 145.8Z" fill="#1a001b" stroke="#C026D3"></path><path d="M404.4 759.2L441.9 784.2L424.8 755.1Z" fill="#1e0620" stroke="#C026D3"></path><path d="M424.8 755.1L441.9 784.2L491.5 740.1Z" fill="#1e0620" stroke="#C026D3"></path><path d="M404.4 759.2L327.8 751.2L368.8 820.1Z" fill="#000000" stroke="#C026D3"></path><path d="M0 284.6L0 365.6L33.5 350.6Z" fill="#251027" stroke="#C026D3"></path><path d="M0 266.8L0 284.6L36.5 302.6Z" fill="#210c24" stroke="#C026D3"></path><path d="M36.5 302.6L0 284.6L33.5 350.6Z" fill="#1a001b" stroke="#C026D3"></path><path d="M107.6 153.8L102.1 185.8L180.2 183.8Z" fill="#1b001c" stroke="#C026D3"></path><path d="M107.6 153.8L180.2 183.8L209.2 53.9Z" fill="#210c24" stroke="#C026D3"></path><path d="M44.5 640.4L106.5 712.2L68.1 628.3Z" fill="#1f0922" stroke="#C026D3"></path><path d="M22.5 629.3L44.5 640.4L66.1 628.2Z" fill="#251027" stroke="#C026D3"></path><path d="M66.1 628.2L44.5 640.4L68.1 628.3Z" fill="#1a001b" stroke="#C026D3"></path><path d="M0 575.4L66.1 628.2L22.5 533.4Z" fill="#210c24" stroke="#C026D3"></path><path d="M449.4 133.8L449.9 105.9L430.4 118.9Z" fill="#251027" stroke="#C026D3"></path><path d="M430.4 118.9L449.9 105.9L368.3 105.9Z" fill="#000000" stroke="#C026D3"></path><path d="M567.5 146.9L449.4 133.8L494.9 201.8Z" fill="#210c24" stroke="#C026D3"></path><path d="M567.5 146.9L494.9 201.8L548.9 226.7Z" fill="#1a001b" stroke="#C026D3"></path><path d="M600 278.6L600 191.8L548.9 226.7Z" fill="#230e25" stroke="#C026D3"></path><path d="M356.8 102.9L308.7 83.9L310.3 105.8Z" fill="#1d031e" stroke="#C026D3"></path><path d="M298.3 103.9L249.7 75.9L270.7 115.8Z" fill="#230e25" stroke="#C026D3"></path><path d="M335.8 0L308.7 83.9L356.8 102.9Z" fill="#210c24" stroke="#C026D3"></path><path d="M0 435.5L0 575.4L22.5 533.4Z" fill="#1d031e" stroke="#C026D3"></path><path d="M368.8 820.1L327.8 751.2L302.3 760.2Z" fill="#1f0922" stroke="#C026D3"></path><path d="M441.9 784.2L517.5 773.2L491.5 740.1Z" fill="#1b001c" stroke="#C026D3"></path><path d="M491.5 740.1L517.5 773.2L494.5 694.2Z" fill="#180019" stroke="#C026D3"></path><path d="M466.9 836.1L517.5 773.2L441.9 784.2Z" fill="#000000" stroke="#C026D3"></path><path d="M0 575.4L22.5 629.3L66.1 628.2Z" fill="#210c24" stroke="#C026D3"></path><path d="M9.5 738.1L106.1 741.2L106.5 712.2Z" fill="#1a001b" stroke="#C026D3"></path><path d="M206.6 758.2L203.2 792.2L241.7 768.2Z" fill="#230e25" stroke="#C026D3"></path><path d="M324.3 845.1L368.8 820.1L302.3 760.2Z" fill="#271229" stroke="#C026D3"></path><path d="M106.1 741.2L203.2 792.2L206.6 758.2Z" fill="#1d031e" stroke="#C026D3"></path><path d="M262.2 833.1L302.3 760.2L241.7 768.2Z" fill="#1e0620" stroke="#C026D3"></path><path d="M600 191.8L567.5 146.9L548.9 226.7Z" fill="#000000" stroke="#C026D3"></path><path d="M249.7 75.9L180.2 183.8L270.7 115.8Z" fill="#1d031e" stroke="#C026D3"></path><path d="M0 266.8L36.5 302.6L9.5 237.8Z" fill="#1a001b" stroke="#C026D3"></path><path d="M106.5 712.2L106.1 741.2L206.6 758.2Z" fill="#1e0620" stroke="#C026D3"></path><path d="M0 670.3L106.5 712.2L44.5 640.4Z" fill="#000000" stroke="#C026D3"></path><path d="M36.5 302.6L85.5 235.7L9.5 237.8Z" fill="#180019" stroke="#C026D3"></path><path d="M308.7 83.9L249.7 75.9L298.3 103.9Z" fill="#1d031e" stroke="#C026D3"></path><path d="M0 575.4L0 618.4L22.5 629.3Z" fill="#1f0922" stroke="#C026D3"></path><path d="M22.5 629.3L0 665.2L44.5 640.4Z" fill="#210c24" stroke="#C026D3"></path><path d="M9.5 237.8L85.5 235.7L61.1 165.8Z" fill="#1b001c" stroke="#C026D3"></path><path d="M600 278.6L600.5 152.8L600 191.8Z" fill="#1d031e" stroke="#C026D3"></path><path d="M600 191.8L600.5 152.8L567.5 146.9Z" fill="#1f0922" stroke="#C026D3"></path><path d="M567.5 146.9L476.9 67.9L449.9 105.9Z" fill="#1e0620" stroke="#C026D3"></path><path d="M600 318.7L600.5 152.8L600 278.6Z" fill="#180019" stroke="#C026D3"></path><path d="M600 343.6L600.5 152.8L600 318.7Z" fill="#1f0922" stroke="#C026D3"></path><path d="M600 418.5L600.5 152.8L600 343.6Z" fill="#230e25" stroke="#C026D3"></path><path d="M600 447.5L600.5 152.8L600 418.5Z" fill="#000000" stroke="#C026D3"></path><path d="M600 549.4L600.5 152.8L600 447.5Z" fill="#271229" stroke="#C026D3"></path><path d="M600 584.3L600.5 152.8L600 549.4Z" fill="#210c24" stroke="#C026D3"></path><path d="M600 595.4L600.5 152.8L600 584.3Z" fill="#1d031e" stroke="#C026D3"></path><path d="M600 636.2L600.5 152.8L600 595.4Z" fill="#000000" stroke="#C026D3"></path><path d="M61.1 165.8L85.5 235.7L102.1 185.8Z" fill="#210c24" stroke="#C026D3"></path><path d="M225.7 834.1L262.2 833.1L241.7 768.2Z" fill="#210c24" stroke="#C026D3"></path><path d="M225.7 834.1L241.7 768.2L203.2 792.2Z" fill="#230e25" stroke="#C026D3"></path><path d="M262.2 833.1L324.3 845.1L302.3 760.2Z" fill="#230e25" stroke="#C026D3"></path><path d="M368.8 820.1L466.9 836.1L430.4 806.1Z" fill="#1b001c" stroke="#C026D3"></path><path d="M107.6 153.8L61.1 165.8L102.1 185.8Z" fill="#251027" stroke="#C026D3"></path><path d="M41.5 142.8L61.1 165.8L107.6 153.8Z" fill="#1f0922" stroke="#C026D3"></path><path d="M600 119.8L476.9 67.9L567.5 146.9Z" fill="#230e25" stroke="#C026D3"></path><path d="M449.9 105.9L439.4 10.9L368.3 105.9Z" fill="#1f0922" stroke="#C026D3"></path><path d="M308.7 83.9L250.2 43.9L249.7 75.9Z" fill="#210c24" stroke="#C026D3"></path><path d="M0 190.8L0 238.7L9.5 237.8Z" fill="#1d031e" stroke="#C026D3"></path><path d="M9.5 237.8L0 238.7L0 266.8Z" fill="#000000" stroke="#C026D3"></path><path d="M72.1 814.1L201.6 824.1L203.2 792.2Z" fill="#1a001b" stroke="#C026D3"></path><path d="M262.2 833.1L294.3 865.1L324.3 845.1Z" fill="#230e25" stroke="#C026D3"></path><path d="M201.6 824.1L225.7 834.1L203.2 792.2Z" fill="#1d031e" stroke="#C026D3"></path><path d="M600.5 152.8L600 130.9L567.5 146.9Z" fill="#1e0620" stroke="#C026D3"></path><path d="M0 618.4L0 665.2L22.5 629.3Z" fill="#1b001c" stroke="#C026D3"></path><path d="M172.6 900L200.6 866.1L127.1 900Z" fill="#1e0620" stroke="#C026D3"></path><path d="M471.9 906.1L466.9 836.1L368.8 820.1Z" fill="#1a001b" stroke="#C026D3"></path><path d="M430.4 806.1L466.9 836.1L441.9 784.2Z" fill="#1e0620" stroke="#C026D3"></path><path d="M517.5 773.2L600 765.2L494.5 694.2Z" fill="#251027" stroke="#C026D3"></path><path d="M600 636.2L600 765.2L600.5 152.8Z" fill="#251027" stroke="#C026D3"></path><path d="M600 812.1L600 765.2L517.5 773.2Z" fill="#180019" stroke="#C026D3"></path><path d="M0 665.2L0 670.3L44.5 640.4Z" fill="#1f0922" stroke="#C026D3"></path><path d="M310.3 0L250.2 43.9L308.7 83.9Z" fill="#000000" stroke="#C026D3"></path><path d="M249.7 75.9L209.2 53.9L180.2 183.8Z" fill="#000000" stroke="#C026D3"></path><path d="M600.5 152.8L600 119.8L600 130.9Z" fill="#1a001b" stroke="#C026D3"></path><path d="M600 130.9L600 119.8L567.5 146.9Z" fill="#1b001c" stroke="#C026D3"></path><path d="M250.2 43.9L209.2 53.9L249.7 75.9Z" fill="#210c24" stroke="#C026D3"></path><path d="M252.2 900L294.3 865.1L262.2 833.1Z" fill="#000000" stroke="#C026D3"></path><path d="M324.3 845.1L344.3 900L368.8 820.1Z" fill="#1e0620" stroke="#C026D3"></path><path d="M252.2 900L262.2 833.1L244.7 900Z" fill="#1b001c" stroke="#C026D3"></path><path d="M41.5 142.8L0 190.8L61.1 165.8Z" fill="#1a001b" stroke="#C026D3"></path><path d="M61.1 165.8L0 190.8L9.5 237.8Z" fill="#180019" stroke="#C026D3"></path><path d="M98.1 82.9L41.5 142.8L107.6 153.8Z" fill="#251027" stroke="#C026D3"></path><path d="M209.2 53.9L98.1 82.9L107.6 153.8Z" fill="#1d031e" stroke="#C026D3"></path><path d="M72.1 814.1L203.2 792.2L106.1 741.2Z" fill="#251027" stroke="#C026D3"></path><path d="M201.6 824.1L200.6 866.1L225.7 834.1Z" fill="#1d031e" stroke="#C026D3"></path><path d="M0 670.3L9.5 738.1L106.5 712.2Z" fill="#1a001b" stroke="#C026D3"></path><path d="M252.2 900L306.7 891.1L294.3 865.1Z" fill="#1a001b" stroke="#C026D3"></path><path d="M294.3 865.1L306.7 891.1L324.3 845.1Z" fill="#230e25" stroke="#C026D3"></path><path d="M530.5 857.1L600 812.1L517.5 773.2Z" fill="#1a001b" stroke="#C026D3"></path><path d="M600 765.2L600 812.1L600.5 152.8Z" fill="#1d031e" stroke="#C026D3"></path><path d="M530.5 857.1L517.5 773.2L466.9 836.1Z" fill="#271229" stroke="#C026D3"></path><path d="M455.4 0L439.4 10.9L463.9 0Z" fill="#1f0922" stroke="#C026D3"></path><path d="M476.9 67.9L439.4 10.9L449.9 105.9Z" fill="#1e0620" stroke="#C026D3"></path><path d="M429.8 -1.1L335.8 0L368.3 105.9Z" fill="#210c24" stroke="#C026D3"></path><path d="M250.2 43.9L272.7 0L209.2 53.9Z" fill="#000000" stroke="#C026D3"></path><path d="M209.2 53.9L105.6 63.9L98.1 82.9Z" fill="#210c24" stroke="#C026D3"></path><path d="M335.8 0L310.3 0L308.7 83.9Z" fill="#1a001b" stroke="#C026D3"></path><path d="M478.4 900L530.5 857.1L466.9 836.1Z" fill="#271229" stroke="#C026D3"></path><path d="M114.6 27.9L105.6 63.9L209.2 53.9Z" fill="#000000" stroke="#C026D3"></path><path d="M15.5 62.9L-2.5 151.9L41.5 142.8Z" fill="#1e0620" stroke="#C026D3"></path><path d="M41.5 142.8L-2.5 151.9L0 190.8Z" fill="#1f0922" stroke="#C026D3"></path><path d="M310.3 0L272.7 0L250.2 43.9Z" fill="#230e25" stroke="#C026D3"></path><path d="M341.8 900L324.3 845.1L306.7 891.1Z" fill="#271229" stroke="#C026D3"></path><path d="M341.8 900L344.3 900L324.3 845.1Z" fill="#1d031e" stroke="#C026D3"></path><path d="M252.2 900L341.8 900L306.7 891.1Z" fill="#000000" stroke="#C026D3"></path><path d="M0 670.3L0 742.2L9.5 738.1Z" fill="#210c24" stroke="#C026D3"></path><path d="M9.5 738.1L72.1 814.1L106.1 741.2Z" fill="#210c24" stroke="#C026D3"></path><path d="M15.5 62.9L41.5 142.8L98.1 82.9Z" fill="#210c24" stroke="#C026D3"></path><path d="M0 190.8L-2.5 151.9L0 238.7Z" fill="#210c24" stroke="#C026D3"></path><path d="M0 238.7L-2.5 151.9L0 266.8Z" fill="#1a001b" stroke="#C026D3"></path><path d="M0 266.8L-2.5 151.9L0 284.6Z" fill="#210c24" stroke="#C026D3"></path><path d="M0 284.6L-2.5 151.9L0 365.6Z" fill="#180019" stroke="#C026D3"></path><path d="M0 365.6L-2.5 151.9L0 415.5Z" fill="#251027" stroke="#C026D3"></path><path d="M0 415.5L-2.5 151.9L0 435.5Z" fill="#1a001b" stroke="#C026D3"></path><path d="M0 435.5L-2.5 151.9L0 575.4Z" fill="#1e0620" stroke="#C026D3"></path><path d="M0 575.4L-2.5 151.9L0 618.4Z" fill="#1b001c" stroke="#C026D3"></path><path d="M0 618.4L-2.5 151.9L0 665.2Z" fill="#1a001b" stroke="#C026D3"></path><path d="M0 665.2L-2.5 151.9L0 670.3Z" fill="#230e25" stroke="#C026D3"></path><path d="M0 670.3L-2.5 151.9L0 742.2Z" fill="#251027" stroke="#C026D3"></path><path d="M455.4 0L429.8 -1.1L439.4 10.9Z" fill="#1b001c" stroke="#C026D3"></path><path d="M439.4 10.9L429.8 -1.1L368.3 105.9Z" fill="#1d031e" stroke="#C026D3"></path><path d="M335.8 0L152.1 -4.1L310.3 0Z" fill="#180019" stroke="#C026D3"></path><path d="M310.3 0L152.1 -4.1L272.7 0Z" fill="#251027" stroke="#C026D3"></path><path d="M57.1 821.1L72.1 814.1L9.5 796.2Z" fill="#1d031e" stroke="#C026D3"></path><path d="M-2.5 151.9L0 749.1L0 742.2Z" fill="#210c24" stroke="#C026D3"></path><path d="M0 742.2L0 749.1L9.5 738.1Z" fill="#1b001c" stroke="#C026D3"></path><path d="M463.9 0L439.4 10.9L476.9 67.9Z" fill="#000000" stroke="#C026D3"></path><path d="M244.7 900L262.2 833.1L225.7 834.1Z" fill="#1d031e" stroke="#C026D3"></path><path d="M244.7 900L225.7 834.1L200.6 866.1Z" fill="#271229" stroke="#C026D3"></path><path d="M501.5 0L463.9 0L476.9 67.9Z" fill="#230e25" stroke="#C026D3"></path><path d="M455.4 0L463.9 0L429.8 -1.1Z" fill="#1e0620" stroke="#C026D3"></path><path d="M172.6 900L244.7 900L200.6 866.1Z" fill="#1d031e" stroke="#C026D3"></path><path d="M9.5 796.2L72.1 814.1L9.5 738.1Z" fill="#1f0922" stroke="#C026D3"></path><path d="M127.1 900L200.6 866.1L201.6 824.1Z" fill="#000000" stroke="#C026D3"></path><path d="M471.9 906.1L478.4 900L466.9 836.1Z" fill="#1f0922" stroke="#C026D3"></path><path d="M530.5 857.1L600 900L600 812.1Z" fill="#251027" stroke="#C026D3"></path><path d="M522.5 -2.1L501.5 0L476.9 67.9Z" fill="#1a001b" stroke="#C026D3"></path><path d="M463.9 0L522.5 -2.1L429.8 -1.1Z" fill="#1d031e" stroke="#C026D3"></path><path d="M344.3 900L471.9 906.1L368.8 820.1Z" fill="#180019" stroke="#C026D3"></path><path d="M478.4 900L514.5 900L530.5 857.1Z" fill="#251027" stroke="#C026D3"></path><path d="M341.8 900L471.9 906.1L344.3 900Z" fill="#000000" stroke="#C026D3"></path><path d="M252.2 900L471.9 906.1L341.8 900Z" fill="#1b001c" stroke="#C026D3"></path><path d="M244.7 900L471.9 906.1L252.2 900Z" fill="#180019" stroke="#C026D3"></path><path d="M160.2 0L114.6 27.9L209.2 53.9Z" fill="#1f0922" stroke="#C026D3"></path><path d="M105.6 63.9L15.5 62.9L98.1 82.9Z" fill="#000000" stroke="#C026D3"></path><path d="M600 29.9L522.5 -2.1L476.9 67.9Z" fill="#000000" stroke="#C026D3"></path><path d="M501.5 0L522.5 -2.1L463.9 0Z" fill="#1d031e" stroke="#C026D3"></path><path d="M152.1 -4.1L160.2 0L272.7 0Z" fill="#1d031e" stroke="#C026D3"></path><path d="M272.7 0L160.2 0L209.2 53.9Z" fill="#1a001b" stroke="#C026D3"></path><path d="M152.1 -4.1L335.8 0L429.8 -1.1Z" fill="#1a001b" stroke="#C026D3"></path><path d="M0 749.1L9.5 796.2L9.5 738.1Z" fill="#230e25" stroke="#C026D3"></path><path d="M471.9 906.1L514.5 900L478.4 900Z" fill="#1a001b" stroke="#C026D3"></path><path d="M127.1 900L72.1 814.1L70.5 900Z" fill="#180019" stroke="#C026D3"></path><path d="M127.1 900L201.6 824.1L72.1 814.1Z" fill="#251027" stroke="#C026D3"></path><path d="M244.7 900L172.6 900L471.9 906.1Z" fill="#251027" stroke="#C026D3"></path><path d="M471.9 906.1L518.9 900L514.5 900Z" fill="#251027" stroke="#C026D3"></path><path d="M514.5 900L518.9 900L530.5 857.1Z" fill="#1e0620" stroke="#C026D3"></path><path d="M600.5 152.8L600 29.9L600 119.8Z" fill="#1f0922" stroke="#C026D3"></path><path d="M600 119.8L600 29.9L476.9 67.9Z" fill="#210c24" stroke="#C026D3"></path><path d="M522.5 -2.1L152.1 -4.1L429.8 -1.1Z" fill="#271229" stroke="#C026D3"></path><path d="M160.2 0L152.1 -4.1L114.6 27.9Z" fill="#1e0620" stroke="#C026D3"></path><path d="M152.1 -4.1L123.6 0L114.6 27.9Z" fill="#000000" stroke="#C026D3"></path><path d="M62.1 0L15.5 62.9L105.6 63.9Z" fill="#1b001c" stroke="#C026D3"></path><path d="M70.5 900L72.1 814.1L57.1 821.1Z" fill="#230e25" stroke="#C026D3"></path><path d="M172.6 900L127.1 900L471.9 906.1Z" fill="#1b001c" stroke="#C026D3"></path><path d="M62.1 0L105.6 63.9L114.6 27.9Z" fill="#230e25" stroke="#C026D3"></path><path d="M152.1 -4.1L106.5 0L123.6 0Z" fill="#251027" stroke="#C026D3"></path><path d="M123.6 0L106.5 0L114.6 27.9Z" fill="#180019" stroke="#C026D3"></path><path d="M9.5 796.2L21.5 842.1L57.1 821.1Z" fill="#180019" stroke="#C026D3"></path><path d="M600.5 152.8L600 0L600 29.9Z" fill="#000000" stroke="#C026D3"></path><path d="M600 29.9L600 0L522.5 -2.1Z" fill="#230e25" stroke="#C026D3"></path><path d="M15.5 62.9L0 56.9L-2.5 151.9Z" fill="#251027" stroke="#C026D3"></path><path d="M0 48.9L0 56.9L15.5 62.9Z" fill="#251027" stroke="#C026D3"></path><path d="M518.9 900L600 900L530.5 857.1Z" fill="#1b001c" stroke="#C026D3"></path><path d="M600 812.1L600 900L600.5 152.8Z" fill="#251027" stroke="#C026D3"></path><path d="M600 902.1L600 900L518.9 900Z" fill="#1b001c" stroke="#C026D3"></path><path d="M471.9 906.1L600 902.1L518.9 900Z" fill="#271229" stroke="#C026D3"></path><path d="M600 900L600 902.1L600.5 152.8Z" fill="#180019" stroke="#C026D3"></path><path d="M62.1 0L0 48.9L15.5 62.9Z" fill="#1e0620" stroke="#C026D3"></path><path d="M0 56.9L0 48.9L-2.5 151.9Z" fill="#1b001c" stroke="#C026D3"></path><path d="M152.1 -4.1L62.1 0L106.5 0Z" fill="#1b001c" stroke="#C026D3"></path><path d="M106.5 0L62.1 0L114.6 27.9Z" fill="#180019" stroke="#C026D3"></path><path d="M21.5 842.1L70.5 900L57.1 821.1Z" fill="#1e0620" stroke="#C026D3"></path><path d="M127.1 900L70.5 900L471.9 906.1Z" fill="#1a001b" stroke="#C026D3"></path><path d="M9.5 796.2L0 866.1L21.5 842.1Z" fill="#1b001c" stroke="#C026D3"></path><path d="M21.5 842.1L0 866.1L70.5 900Z" fill="#251027" stroke="#C026D3"></path><path d="M0 749.1L0 866.1L9.5 796.2Z" fill="#1e0620" stroke="#C026D3"></path><path d="M-2.5 151.9L0 866.1L0 749.1Z" fill="#1d031e" stroke="#C026D3"></path><path d="M152.1 -4.1L0 0L62.1 0Z" fill="#180019" stroke="#C026D3"></path><path d="M62.1 0L0 0L0 48.9Z" fill="#230e25" stroke="#C026D3"></path><path d="M0 48.9L0 0L-2.5 151.9Z" fill="#1d031e" stroke="#C026D3"></path><path d="M-2.5 151.9L0 900L0 866.1Z" fill="#180019" stroke="#C026D3"></path><path d="M0 866.1L0 900L70.5 900Z" fill="#230e25" stroke="#C026D3"></path><path d="M70.5 900L0 900L471.9 906.1Z" fill="#210c24" stroke="#C026D3"></path></g></svg>