<svg id="visual" viewBox="0 0 900 600" width="900" height="600" xmlns="http://www.w3.org/2000/svg" xmlns:xlink="http://www.w3.org/1999/xlink" version="1.1"><g stroke-width="1" stroke-linejoin="bevel"><path d="M440.9 254L464.9 220L400.1 224Z" fill="#1b001c" stroke="#C026D3"></path><path d="M400.1 224L379.1 246L440.9 254Z" fill="#1d031e" stroke="#C026D3"></path><path d="M464.9 220L450.9 146L400.1 224Z" fill="#230e25" stroke="#C026D3"></path><path d="M400.1 224L346.3 178L379.1 246Z" fill="#271229" stroke="#C026D3"></path><path d="M380.3 135L346.3 178L400.1 224Z" fill="#1b001c" stroke="#C026D3"></path><path d="M450.9 146L380.3 135L400.1 224Z" fill="#1d031e" stroke="#C026D3"></path><path d="M404.1 125L380.3 135L450.9 146Z" fill="#271229" stroke="#C026D3"></path><path d="M425.1 374L505.9 329L440.9 254Z" fill="#230e25" stroke="#C026D3"></path><path d="M440.9 254L505.9 329L464.9 220Z" fill="#1d031e" stroke="#C026D3"></path><path d="M464.9 220L579.7 111L450.9 146Z" fill="#1a001b" stroke="#C026D3"></path><path d="M450.9 146L434.1 81L404.1 125Z" fill="#230e25" stroke="#C026D3"></path><path d="M404.1 125L341.3 59L380.3 135Z" fill="#1b001c" stroke="#C026D3"></path><path d="M531.9 48L434.1 81L450.9 146Z" fill="#271229" stroke="#C026D3"></path><path d="M317.3 341L425.1 374L379.1 246Z" fill="#210c24" stroke="#C026D3"></path><path d="M379.1 246L425.1 374L440.9 254Z" fill="#230e25" stroke="#C026D3"></path><path d="M284.3 317L317.3 341L379.1 246Z" fill="#1f0922" stroke="#C026D3"></path><path d="M346.3 178L269.5 288L379.1 246Z" fill="#000000" stroke="#C026D3"></path><path d="M269.5 288L284.3 317L379.1 246Z" fill="#1a001b" stroke="#C026D3"></path><path d="M477.9 415L528.7 372L505.9 329Z" fill="#1b001c" stroke="#C026D3"></path><path d="M505.9 329L603.7 281L464.9 220Z" fill="#1a001b" stroke="#C026D3"></path><path d="M528.7 372L603.7 281L505.9 329Z" fill="#180019" stroke="#C026D3"></path><path d="M619.7 158L579.7 111L464.9 220Z" fill="#1f0922" stroke="#C026D3"></path><path d="M434.1 81L341.3 59L404.1 125Z" fill="#1a001b" stroke="#C026D3"></path><path d="M380.3 135L261.5 120L346.3 178Z" fill="#271229" stroke="#C026D3"></path><path d="M346.3 178L248.5 262L269.5 288Z" fill="#230e25" stroke="#C026D3"></path><path d="M362.3 0L341.3 59L434.1 81Z" fill="#180019" stroke="#C026D3"></path><path d="M261.5 120L248.5 262L346.3 178Z" fill="#180019" stroke="#C026D3"></path><path d="M269.5 288L271.5 327L284.3 317Z" fill="#230e25" stroke="#C026D3"></path><path d="M248.5 262L271.5 327L269.5 288Z" fill="#251027" stroke="#C026D3"></path><path d="M284.3 317L271.5 327L317.3 341Z" fill="#1d031e" stroke="#C026D3"></path><path d="M408.1 462L477.9 415L425.1 374Z" fill="#1f0922" stroke="#C026D3"></path><path d="M676.5 261L621.7 262L684.4 326Z" fill="#1f0922" stroke="#C026D3"></path><path d="M603.7 281L621.7 262L464.9 220Z" fill="#1f0922" stroke="#C026D3"></path><path d="M425.1 374L477.9 415L505.9 329Z" fill="#180019" stroke="#C026D3"></path><path d="M295.3 402L425.1 374L317.3 341Z" fill="#1d031e" stroke="#C026D3"></path><path d="M621.7 262L619.7 158L464.9 220Z" fill="#230e25" stroke="#C026D3"></path><path d="M341.3 59L261.5 120L380.3 135Z" fill="#251027" stroke="#C026D3"></path><path d="M613.7 0L531.9 48L579.7 111Z" fill="#271229" stroke="#C026D3"></path><path d="M579.7 111L531.9 48L450.9 146Z" fill="#271229" stroke="#C026D3"></path><path d="M437.9 0L432.1 0L434.1 81Z" fill="#1b001c" stroke="#C026D3"></path><path d="M531.9 48L437.9 0L434.1 81Z" fill="#000000" stroke="#C026D3"></path><path d="M209.5 392L295.3 402L271.5 327Z" fill="#180019" stroke="#C026D3"></path><path d="M271.5 327L295.3 402L317.3 341Z" fill="#1d031e" stroke="#C026D3"></path><path d="M432.1 0L362.3 0L434.1 81Z" fill="#230e25" stroke="#C026D3"></path><path d="M341.3 59L213.5 98L261.5 120Z" fill="#000000" stroke="#C026D3"></path><path d="M261.5 120L194.6 249L248.5 262Z" fill="#210c24" stroke="#C026D3"></path><path d="M248.5 262L194.6 249L271.5 327Z" fill="#1d031e" stroke="#C026D3"></path><path d="M295.3 402L408.1 462L425.1 374Z" fill="#1b001c" stroke="#C026D3"></path><path d="M621.7 262L671.5 167L619.7 158Z" fill="#230e25" stroke="#C026D3"></path><path d="M619.7 158L657.5 51L579.7 111Z" fill="#271229" stroke="#C026D3"></path><path d="M684.4 326L621.7 262L603.7 281Z" fill="#251027" stroke="#C026D3"></path><path d="M621.7 262L676.5 261L671.5 167Z" fill="#210c24" stroke="#C026D3"></path><path d="M684.4 326L603.7 281L528.7 372Z" fill="#1a001b" stroke="#C026D3"></path><path d="M191.6 0L213.5 98L341.3 59Z" fill="#230e25" stroke="#C026D3"></path><path d="M261.5 120L150.6 182L194.6 249Z" fill="#230e25" stroke="#C026D3"></path><path d="M437.1 505L551.7 454L477.9 415Z" fill="#1b001c" stroke="#C026D3"></path><path d="M477.9 415L551.7 454L528.7 372Z" fill="#230e25" stroke="#C026D3"></path><path d="M674.5 426L684.4 326L528.7 372Z" fill="#1f0922" stroke="#C026D3"></path><path d="M752.4 157L705.5 113L671.5 167Z" fill="#230e25" stroke="#C026D3"></path><path d="M194.6 249L209.5 392L271.5 327Z" fill="#1a001b" stroke="#C026D3"></path><path d="M319.3 497L437.1 505L408.1 462Z" fill="#1d031e" stroke="#C026D3"></path><path d="M319.3 497L408.1 462L295.3 402Z" fill="#210c24" stroke="#C026D3"></path><path d="M408.1 462L437.1 505L477.9 415Z" fill="#180019" stroke="#C026D3"></path><path d="M705.5 113L657.5 51L619.7 158Z" fill="#271229" stroke="#C026D3"></path><path d="M531.9 48L613.7 0L437.9 0Z" fill="#230e25" stroke="#C026D3"></path><path d="M213.5 98L150.6 182L261.5 120Z" fill="#180019" stroke="#C026D3"></path><path d="M194.6 249L100.8 324L209.5 392Z" fill="#1a001b" stroke="#C026D3"></path><path d="M657.5 51L613.7 0L579.7 111Z" fill="#180019" stroke="#C026D3"></path><path d="M150.6 182L139.6 220L194.6 249Z" fill="#1f0922" stroke="#C026D3"></path><path d="M671.5 167L705.5 113L619.7 158Z" fill="#180019" stroke="#C026D3"></path><path d="M744.4 229L671.5 167L676.5 261Z" fill="#1b001c" stroke="#C026D3"></path><path d="M304.5 495L319.3 497L295.3 402Z" fill="#271229" stroke="#C026D3"></path><path d="M209.5 392L304.5 495L295.3 402Z" fill="#1b001c" stroke="#C026D3"></path><path d="M364.3 600L445.9 528L437.1 505Z" fill="#1b001c" stroke="#C026D3"></path><path d="M437.1 505L445.9 528L551.7 454Z" fill="#1e0620" stroke="#C026D3"></path><path d="M465.1 600L445.9 528L364.3 600Z" fill="#1b001c" stroke="#C026D3"></path><path d="M684.4 326L744.4 229L676.5 261Z" fill="#210c24" stroke="#C026D3"></path><path d="M551.7 454L674.5 426L528.7 372Z" fill="#1e0620" stroke="#C026D3"></path><path d="M856.2 354L801.2 202L744.4 229Z" fill="#180019" stroke="#C026D3"></path><path d="M618.7 513L674.5 426L551.7 454Z" fill="#230e25" stroke="#C026D3"></path><path d="M744.4 229L752.4 157L671.5 167Z" fill="#000000" stroke="#C026D3"></path><path d="M710.4 0L697.5 0L657.5 51Z" fill="#210c24" stroke="#C026D3"></path><path d="M657.5 51L697.5 0L613.7 0Z" fill="#251027" stroke="#C026D3"></path><path d="M362.3 0L191.6 0L341.3 59Z" fill="#000000" stroke="#C026D3"></path><path d="M213.5 98L120.6 91L150.6 182Z" fill="#1d031e" stroke="#C026D3"></path><path d="M150.6 182L22.8 171L139.6 220Z" fill="#251027" stroke="#C026D3"></path><path d="M191.6 0L188.5 0L213.5 98Z" fill="#230e25" stroke="#C026D3"></path><path d="M188.5 0L120.6 91L213.5 98Z" fill="#1b001c" stroke="#C026D3"></path><path d="M597.5 550L618.7 513L551.7 454Z" fill="#251027" stroke="#C026D3"></path><path d="M710.4 0L657.5 51L705.5 113Z" fill="#1a001b" stroke="#C026D3"></path><path d="M0 269L100.8 324L139.6 220Z" fill="#1a001b" stroke="#C026D3"></path><path d="M139.6 220L100.8 324L194.6 249Z" fill="#251027" stroke="#C026D3"></path><path d="M209.5 392L119.6 458L304.5 495Z" fill="#1a001b" stroke="#C026D3"></path><path d="M785.4 103L710.4 0L705.5 113Z" fill="#210c24" stroke="#C026D3"></path><path d="M100.8 324L129.6 420L209.5 392Z" fill="#1f0922" stroke="#C026D3"></path><path d="M744.4 229L795.2 181L752.4 157Z" fill="#1b001c" stroke="#C026D3"></path><path d="M752.4 157L785.4 103L705.5 113Z" fill="#251027" stroke="#C026D3"></path><path d="M801.2 202L795.2 181L744.4 229Z" fill="#1d031e" stroke="#C026D3"></path><path d="M445.9 528L597.5 550L551.7 454Z" fill="#180019" stroke="#C026D3"></path><path d="M747.4 449L764.4 412L674.5 426Z" fill="#251027" stroke="#C026D3"></path><path d="M815.2 392L744.4 229L684.4 326Z" fill="#230e25" stroke="#C026D3"></path><path d="M795.2 181L785.4 103L752.4 157Z" fill="#1f0922" stroke="#C026D3"></path><path d="M813.2 48L785.4 103L900 124Z" fill="#230e25" stroke="#C026D3"></path><path d="M364.3 600L437.1 505L319.3 497Z" fill="#210c24" stroke="#C026D3"></path><path d="M445.9 528L483.9 600L597.5 550Z" fill="#000000" stroke="#C026D3"></path><path d="M364.3 600L319.3 497L263.5 600Z" fill="#1f0922" stroke="#C026D3"></path><path d="M465.1 600L483.9 600L445.9 528Z" fill="#271229" stroke="#C026D3"></path><path d="M701.5 494L674.5 426L618.7 513Z" fill="#1a001b" stroke="#C026D3"></path><path d="M674.5 426L764.4 412L684.4 326Z" fill="#251027" stroke="#C026D3"></path><path d="M690.4 600L701.5 494L618.7 513Z" fill="#1b001c" stroke="#C026D3"></path><path d="M263.5 600L319.3 497L304.5 495Z" fill="#210c24" stroke="#C026D3"></path><path d="M701.5 494L747.4 449L674.5 426Z" fill="#230e25" stroke="#C026D3"></path><path d="M67.8 398L119.6 458L129.6 420Z" fill="#1d031e" stroke="#C026D3"></path><path d="M129.6 420L119.6 458L209.5 392Z" fill="#000000" stroke="#C026D3"></path><path d="M91.8 0L59.8 82L120.6 91Z" fill="#1d031e" stroke="#C026D3"></path><path d="M120.6 91L41.8 114L150.6 182Z" fill="#230e25" stroke="#C026D3"></path><path d="M100.8 324L67.8 398L129.6 420Z" fill="#271229" stroke="#C026D3"></path><path d="M0 307L67.8 398L100.8 324Z" fill="#000000" stroke="#C026D3"></path><path d="M483.9 600L578.7 600L597.5 550Z" fill="#271229" stroke="#C026D3"></path><path d="M597.5 550L619.5 600L618.7 513Z" fill="#271229" stroke="#C026D3"></path><path d="M59.8 82L41.8 114L120.6 91Z" fill="#1f0922" stroke="#C026D3"></path><path d="M188.5 0L91.8 0L120.6 91Z" fill="#000000" stroke="#C026D3"></path><path d="M0 88L0 95L41.8 114Z" fill="#210c24" stroke="#C026D3"></path><path d="M41.8 114L22.8 171L150.6 182Z" fill="#251027" stroke="#C026D3"></path><path d="M220.6 600L263.5 600L304.5 495Z" fill="#271229" stroke="#C026D3"></path><path d="M772.4 489L764.4 412L747.4 449Z" fill="#1a001b" stroke="#C026D3"></path><path d="M772.4 489L815.2 392L764.4 412Z" fill="#180019" stroke="#C026D3"></path><path d="M764.4 412L815.2 392L684.4 326Z" fill="#1d031e" stroke="#C026D3"></path><path d="M900 124L785.4 103L795.2 181Z" fill="#210c24" stroke="#C026D3"></path><path d="M785.4 103L813.2 48L710.4 0Z" fill="#1d031e" stroke="#C026D3"></path><path d="M900 124L795.2 181L801.2 202Z" fill="#180019" stroke="#C026D3"></path><path d="M578.7 600L619.5 600L597.5 550Z" fill="#210c24" stroke="#C026D3"></path><path d="M701.5 494L772.4 489L747.4 449Z" fill="#180019" stroke="#C026D3"></path><path d="M778.2 559L772.4 489L701.5 494Z" fill="#180019" stroke="#C026D3"></path><path d="M144.6 562L304.5 495L119.6 458Z" fill="#271229" stroke="#C026D3"></path><path d="M144.6 562L220.6 600L304.5 495Z" fill="#210c24" stroke="#C026D3"></path><path d="M813.2 48L805.2 0L710.4 0Z" fill="#210c24" stroke="#C026D3"></path><path d="M22.8 171L0 269L139.6 220Z" fill="#000000" stroke="#C026D3"></path><path d="M0 269L0 307L100.8 324Z" fill="#230e25" stroke="#C026D3"></path><path d="M0 395L31.8 408L67.8 398Z" fill="#180019" stroke="#C026D3"></path><path d="M67.8 398L31.8 408L119.6 458Z" fill="#1e0620" stroke="#C026D3"></path><path d="M900 401L856.2 354L815.2 392Z" fill="#271229" stroke="#C026D3"></path><path d="M815.2 392L856.2 354L744.4 229Z" fill="#1d031e" stroke="#C026D3"></path><path d="M118.8 600L144.6 562L21.8 550Z" fill="#210c24" stroke="#C026D3"></path><path d="M41.8 114L0 95L22.8 171Z" fill="#210c24" stroke="#C026D3"></path><path d="M22.8 171L0 95L0 269Z" fill="#1e0620" stroke="#C026D3"></path><path d="M0 88L41.8 114L59.8 82Z" fill="#1d031e" stroke="#C026D3"></path><path d="M0 0L0 88L59.8 82Z" fill="#1a001b" stroke="#C026D3"></path><path d="M619.5 600L690.4 600L618.7 513Z" fill="#1a001b" stroke="#C026D3"></path><path d="M0 307L0 395L67.8 398Z" fill="#1b001c" stroke="#C026D3"></path><path d="M21.8 550L144.6 562L119.6 458Z" fill="#1e0620" stroke="#C026D3"></path><path d="M0 395L0 400L31.8 408Z" fill="#251027" stroke="#C026D3"></path><path d="M856.2 354L900 279L801.2 202Z" fill="#230e25" stroke="#C026D3"></path><path d="M813.2 48L900 0L805.2 0Z" fill="#251027" stroke="#C026D3"></path><path d="M900 279L900 124L801.2 202Z" fill="#1a001b" stroke="#C026D3"></path><path d="M900 401L900 327L856.2 354Z" fill="#1f0922" stroke="#C026D3"></path><path d="M856.2 354L900 327L900 279Z" fill="#251027" stroke="#C026D3"></path><path d="M857.2 472L815.2 392L772.4 489Z" fill="#180019" stroke="#C026D3"></path><path d="M690.4 600L778.2 559L701.5 494Z" fill="#1a001b" stroke="#C026D3"></path><path d="M91.8 0L0 0L59.8 82Z" fill="#1f0922" stroke="#C026D3"></path><path d="M21.8 550L119.6 458L31.8 408Z" fill="#230e25" stroke="#C026D3"></path><path d="M144.6 562L118.8 600L220.6 600Z" fill="#000000" stroke="#C026D3"></path><path d="M778.2 559L857.2 472L772.4 489Z" fill="#210c24" stroke="#C026D3"></path><path d="M900 124L900 67L813.2 48Z" fill="#1e0620" stroke="#C026D3"></path><path d="M900 442L900 401L815.2 392Z" fill="#1a001b" stroke="#C026D3"></path><path d="M900 544L900 442L857.2 472Z" fill="#251027" stroke="#C026D3"></path><path d="M857.2 472L900 442L815.2 392Z" fill="#1d031e" stroke="#C026D3"></path><path d="M900 67L900 0L813.2 48Z" fill="#1d031e" stroke="#C026D3"></path><path d="M0 400L21.8 550L31.8 408Z" fill="#210c24" stroke="#C026D3"></path><path d="M0 400L0 571L21.8 550Z" fill="#000000" stroke="#C026D3"></path><path d="M21.8 550L0 600L118.8 600Z" fill="#1e0620" stroke="#C026D3"></path><path d="M690.4 600L855.2 600L778.2 559Z" fill="#000000" stroke="#C026D3"></path><path d="M778.2 559L900 544L857.2 472Z" fill="#271229" stroke="#C026D3"></path><path d="M855.2 600L900 544L778.2 559Z" fill="#180019" stroke="#C026D3"></path><path d="M0 571L0 600L21.8 550Z" fill="#210c24" stroke="#C026D3"></path><path d="M855.2 600L900 600L900 544Z" fill="#1a001b" stroke="#C026D3"></path></g></svg>